<svg xmlns="http://www.w3.org/2000/svg" viewBox="0 0 64 64">
  <rect x="3" y="3" width="58" height="58" rx="15" fill="#f4f0e8" stroke="#d8cdbd" stroke-width="3"/>
  <path d="M19 35h26l-3 17H22z" fill="#7b5a48"/>
  <path d="M24 39l2 11m6-11v12m8-12l-2 11" fill="none" stroke="#c6ad91" stroke-width="2" stroke-linecap="round"/>
  <path d="M18 34c0-6 4-10 9-11 1-6 9-9 14-5 4 2 6 6 5 11 3 1 5 3 5 6H18z" fill="#e88b8f"/>
  <path d="M32 30c-7-5-11-10-8-15 3-5 8-3 10 1 2-4 7-6 10-1 3 5-2 10-12 15z" fill="#b95763"/>
  <circle cx="32" cy="13" r="2" fill="#f4f0e8"/>
</svg>

